<?xml version="1.0" encoding="UTF-8" standalone="no"?>
<!-- Created with Inkscape (http://www.inkscape.org/) -->

<svg
   xmlns:dc="http://purl.org/dc/elements/1.1/"
   xmlns:cc="http://creativecommons.org/ns#"
   xmlns:rdf="http://www.w3.org/1999/02/22-rdf-syntax-ns#"
   xmlns:svg="http://www.w3.org/2000/svg"
   xmlns="http://www.w3.org/2000/svg"
   xmlns:sodipodi="http://sodipodi.sourceforge.net/DTD/sodipodi-0.dtd"
   xmlns:inkscape="http://www.inkscape.org/namespaces/inkscape"
   width="1024"
   height="1024"
   viewBox="0 0 270.93333 270.93334"
   version="1.1"
   id="svg8"
   inkscape:version="0.92.5 (2060ec1f9f, 2020-04-08)"
   sodipodi:docname="logo.bkup.svg"
   enable-background="new"
   inkscape:export-filename="/home/khusmann/Projects/interlacer/man/figures/logo.png"
   inkscape:export-xdpi="96.000008"
   inkscape:export-ydpi="96.000008">
  <defs
     id="defs2">
    <filter
       inkscape:collect="always"
       style="color-interpolation-filters:sRGB"
       id="filter1552">
      <feBlend
         inkscape:collect="always"
         mode="soft-light"
         in2="BackgroundImage"
         id="feBlend1554" />
    </filter>
  </defs>
  <sodipodi:namedview
     id="base"
     pagecolor="#ffffff"
     bordercolor="#666666"
     borderopacity="1.0"
     inkscape:pageopacity="0.0"
     inkscape:pageshadow="2"
     inkscape:zoom="0.7"
     inkscape:cx="512.00933"
     inkscape:cy="535.60492"
     inkscape:document-units="px"
     inkscape:current-layer="layer1"
     showgrid="false"
     units="px"
     inkscape:window-width="1916"
     inkscape:window-height="1036"
     inkscape:window-x="0"
     inkscape:window-y="20"
     inkscape:window-maximized="0" />
  <metadata
     id="metadata5">
    <rdf:RDF>
      <cc:Work
         rdf:about="">
        <dc:format>image/svg+xml</dc:format>
        <dc:type
           rdf:resource="http://purl.org/dc/dcmitype/StillImage" />
        <dc:title></dc:title>
      </cc:Work>
    </rdf:RDF>
  </metadata>
  <g
     inkscape:label="Layer 1"
     inkscape:groupmode="layer"
     id="layer1"
     transform="translate(0,-26.06665)"
     style="filter:url(#filter1552)">
    <path
       sodipodi:type="star"
       style="fill:#004182;fill-opacity:1;stroke-width:0.26458332"
       id="path825"
       sodipodi:sides="6"
       sodipodi:cx="135.31548"
       sodipodi:cy="160.92857"
       sodipodi:r1="130.85838"
       sodipodi:r2="113.32669"
       sodipodi:arg1="-0.52359878"
       sodipodi:arg2="0"
       inkscape:flatsided="true"
       inkscape:rounded="0"
       inkscape:randomized="0"
       d="m 248.64216,95.499382 0,130.858378 -113.32668,65.4292 L 21.988792,226.35777 21.988791,95.499383 135.31547,30.07019 Z"
       inkscape:transform-center-x="2.6080357e-06"
       inkscape:transform-center-y="-2.3443973e-06" />
    <g
       aria-label="interlacer"
       style="font-style:normal;font-variant:normal;font-weight:normal;font-stretch:normal;font-size:34.57222366px;line-height:1.25;font-family:sans-serif;-inkscape-font-specification:sans-serif;letter-spacing:0px;word-spacing:0px;fill:#f9faf5;fill-opacity:1;stroke:none;stroke-width:0.26458332"
       id="text865"
       transform="translate(0,2.2678572)">
      <path
         d="m 53.150887,192.67069 h 3.106099 v 18.90669 h -3.106099 z m 0,-7.3601 h 3.106099 v 3.93327 h -3.106099 z"
         style="font-style:normal;font-variant:normal;font-weight:normal;font-stretch:normal;font-size:34.57222366px;font-family:sans-serif;-inkscape-font-specification:sans-serif;fill:#f9faf5;fill-opacity:1;stroke-width:0.26458332"
         id="path877"
         inkscape:connector-curvature="0" />
      <path
         d="m 78.47234,200.16584 v 11.41154 h -3.106098 v -11.31025 q 0,-2.68408 -1.04662,-4.01767 -1.04662,-1.3336 -3.13986,-1.3336 -2.515264,0 -3.967028,1.60369 -1.451763,1.6037 -1.451763,4.37217 v 10.68566 h -3.122979 v -18.90669 h 3.122979 v 2.93729 q 1.114144,-1.70498 2.61655,-2.54903 1.519287,-0.84404 3.494361,-0.84404 3.258027,0 4.929243,2.02571 1.671215,2.00884 1.671215,5.92522 z"
         style="font-style:normal;font-variant:normal;font-weight:normal;font-stretch:normal;font-size:34.57222366px;font-family:sans-serif;-inkscape-font-specification:sans-serif;fill:#f9faf5;fill-opacity:1;stroke-width:0.26458332"
         id="path879"
         inkscape:connector-curvature="0" />
      <path
         d="m 87.739993,187.30254 v 5.36815 h 6.397887 v 2.41398 h -6.397887 v 10.26363 q 0,2.31269 0.624596,2.97105 0.641477,0.65836 2.582788,0.65836 h 3.190503 v 2.59967 h -3.190503 q -3.595646,0 -4.963005,-1.3336 -1.367358,-1.35048 -1.367358,-4.89548 v -10.26363 h -2.278931 v -2.41398 h 2.278931 v -5.36815 z"
         style="font-style:normal;font-variant:normal;font-weight:normal;font-stretch:normal;font-size:34.57222366px;font-family:sans-serif;-inkscape-font-specification:sans-serif;fill:#f9faf5;fill-opacity:1;stroke-width:0.26458332"
         id="path881"
         inkscape:connector-curvature="0" />
      <path
         d="m 114.39504,201.34751 v 1.51929 h -14.2813 q 0.20257,3.20738 1.92443,4.89548 1.73874,1.67121 4.82796,1.67121 1.78938,0 3.4606,-0.4389 1.68809,-0.43891 3.34243,-1.31672 v 2.93729 q -1.67122,0.709 -3.42684,1.08038 -1.75562,0.37139 -3.56188,0.37139 -4.5241,0 -7.174414,-2.63344 -2.633431,-2.63343 -2.633431,-7.12376 0,-4.64227 2.498384,-7.36011 2.515261,-2.73471 6.769271,-2.73471 3.8151,0 6.0265,2.46462 2.22829,2.44774 2.22829,6.66798 z m -3.1061,-0.91157 q -0.0338,-2.54903 -1.43488,-4.06832 -1.38424,-1.51928 -3.68005,-1.51928 -2.59967,0 -4.1696,1.46864 -1.55305,1.46865 -1.78938,4.13584 z"
         style="font-style:normal;font-variant:normal;font-weight:normal;font-stretch:normal;font-size:34.57222366px;font-family:sans-serif;-inkscape-font-specification:sans-serif;fill:#f9faf5;fill-opacity:1;stroke-width:0.26458332"
         id="path883"
         inkscape:connector-curvature="0" />
      <path
         d="m 130.44884,195.57422 q -0.52331,-0.30386 -1.1479,-0.43891 -0.60772,-0.15192 -1.35048,-0.15192 -2.63343,0 -4.05143,1.72185 -1.40112,1.70498 -1.40112,4.91237 v 9.95977 h -3.12298 v -18.90669 h 3.12298 v 2.93729 q 0.97909,-1.72186 2.54902,-2.54903 1.56993,-0.84404 3.8151,-0.84404 0.32074,0 0.709,0.0506 0.38827,0.0338 0.86093,0.11817 z"
         style="font-style:normal;font-variant:normal;font-weight:normal;font-stretch:normal;font-size:34.57222366px;font-family:sans-serif;-inkscape-font-specification:sans-serif;fill:#f9faf5;fill-opacity:1;stroke-width:0.26458332"
         id="path885"
         inkscape:connector-curvature="0" />
      <path
         d="m 133.70687,185.31059 h 3.1061 v 26.26679 h -3.1061 z"
         style="font-style:normal;font-variant:normal;font-weight:normal;font-stretch:normal;font-size:34.57222366px;font-family:sans-serif;-inkscape-font-specification:sans-serif;fill:#f9faf5;fill-opacity:1;stroke-width:0.26458332"
         id="path887"
         inkscape:connector-curvature="0" />
      <path
         d="m 151.90456,202.07339 q -3.76446,0 -5.21622,0.86093 -1.45177,0.86093 -1.45177,2.93729 0,1.65433 1.08038,2.63343 1.09727,0.96222 2.97106,0.96222 2.58278,0 4.13583,-1.82315 1.56993,-1.84002 1.56993,-4.8786 v -0.69212 z m 6.19531,-1.28295 v 10.78694 h -3.1061 v -2.86977 q -1.0635,1.72186 -2.65031,2.54903 -1.58681,0.81029 -3.88262,0.81029 -2.90353,0 -4.62539,-1.62058 -1.70498,-1.63745 -1.70498,-4.37217 0,-3.1905 2.12701,-4.81107 2.14388,-1.62058 6.381,-1.62058 h 4.35529 v -0.30385 q 0,-2.14389 -1.418,-3.30867 -1.40112,-1.18167 -3.95015,-1.18167 -1.62057,0 -3.15674,0.38826 -1.53616,0.38826 -2.95417,1.16479 v -2.86977 q 1.70498,-0.65836 3.30867,-0.97909 1.6037,-0.33762 3.12298,-0.33762 4.10208,0 6.12779,2.127 2.02572,2.127 2.02572,6.44853 z"
         style="font-style:normal;font-variant:normal;font-weight:normal;font-stretch:normal;font-size:34.57222366px;font-family:sans-serif;-inkscape-font-specification:sans-serif;fill:#f9faf5;fill-opacity:1;stroke-width:0.26458332"
         id="path889"
         inkscape:connector-curvature="0" />
      <path
         d="m 178.10382,193.39657 v 2.90353 q -1.31672,-0.72588 -2.65031,-1.08038 -1.31672,-0.37138 -2.6672,-0.37138 -3.02169,0 -4.69291,1.92443 -1.67121,1.90755 -1.67121,5.36815 0,3.46059 1.67121,5.38502 1.67122,1.90755 4.69291,1.90755 1.35048,0 2.6672,-0.3545 1.33359,-0.37138 2.65031,-1.09726 v 2.86977 q -1.29984,0.60771 -2.70096,0.91157 -1.38424,0.30386 -2.95417,0.30386 -4.27088,0 -6.78615,-2.68408 -2.51526,-2.68407 -2.51526,-7.24193 0,-4.62539 2.53215,-7.2757 2.54902,-2.65031 6.97184,-2.65031 1.43488,0 2.80224,0.30385 1.36735,0.28698 2.65031,0.87781 z"
         style="font-style:normal;font-variant:normal;font-weight:normal;font-stretch:normal;font-size:34.57222366px;font-family:sans-serif;-inkscape-font-specification:sans-serif;fill:#f9faf5;fill-opacity:1;stroke-width:0.26458332"
         id="path891"
         inkscape:connector-curvature="0" />
      <path
         d="m 199.6777,201.34751 v 1.51929 h -14.2813 q 0.20257,3.20738 1.92443,4.89548 1.73874,1.67121 4.82796,1.67121 1.78938,0 3.46059,-0.4389 1.6881,-0.43891 3.34244,-1.31672 v 2.93729 q -1.67122,0.709 -3.42684,1.08038 -1.75562,0.37139 -3.56188,0.37139 -4.5241,0 -7.17442,-2.63344 -2.63343,-2.63343 -2.63343,-7.12376 0,-4.64227 2.49839,-7.36011 2.51526,-2.73471 6.76926,-2.73471 3.8151,0 6.02651,2.46462 2.22829,2.44774 2.22829,6.66798 z m -3.1061,-0.91157 q -0.0338,-2.54903 -1.43488,-4.06832 -1.38424,-1.51928 -3.68005,-1.51928 -2.59967,0 -4.1696,1.46864 -1.55305,1.46865 -1.78939,4.13584 z"
         style="font-style:normal;font-variant:normal;font-weight:normal;font-stretch:normal;font-size:34.57222366px;font-family:sans-serif;-inkscape-font-specification:sans-serif;fill:#f9faf5;fill-opacity:1;stroke-width:0.26458332"
         id="path893"
         inkscape:connector-curvature="0" />
      <path
         d="m 215.7315,195.57422 q -0.52331,-0.30386 -1.14791,-0.43891 -0.60771,-0.15192 -1.35047,-0.15192 -2.63344,0 -4.05144,1.72185 -1.40112,1.70498 -1.40112,4.91237 v 9.95977 h -3.12298 v -18.90669 h 3.12298 v 2.93729 q 0.9791,-1.72186 2.54903,-2.54903 1.56993,-0.84404 3.8151,-0.84404 0.32074,0 0.709,0.0506 0.38826,0.0338 0.86093,0.11817 z"
         style="font-style:normal;font-variant:normal;font-weight:normal;font-stretch:normal;font-size:34.57222366px;font-family:sans-serif;-inkscape-font-specification:sans-serif;fill:#f9faf5;fill-opacity:1;stroke-width:0.26458332"
         id="path895"
         inkscape:connector-curvature="0" />
    </g>
    <path
       style="fill:#edf1ec;stroke-width:0.16525926;fill-opacity:1"
       d="m 192.88321,141.87268 c -0.40993,4.13862 -0.91329,6.62687 -2.00316,9.90206 -3.95589,11.88803 -13.85087,21.05692 -25.0586,23.21978 -8.67034,1.6732 -18.04855,-0.91601 -25.16676,-6.94827 -1.48262,-1.25644 -5.6803,-5.51437 -5.6803,-5.76184 0,-0.086 0.87128,-1.28185 1.93617,-2.65738 l 1.93616,-2.50096 0.41878,0.4835 c 2.74181,3.16563 3.77347,4.24085 5.24426,5.46566 5.17977,4.31352 9.41027,6.03934 15.33615,6.25631 2.22533,0.0815 2.95841,0.0429 4.62821,-0.24334 8.39679,-1.43954 15.37835,-7.11911 19.58067,-15.92909 2.20311,-4.61872 3.11765,-9.2781 2.92679,-14.91134 -0.16691,-4.9266 -1.1012,-8.82954 -3.09512,-12.92967 -2.77185,-5.6998 -7.52007,-10.59031 -12.80292,-13.18661 -3.4684,-1.70457 -6.07531,-2.3843 -9.66767,-2.52076 -6.90005,-0.26212 -13.72066,2.76165 -19.18612,8.50574 -1.66917,1.75426 -5.79118,6.67806 -10.48361,12.52278 -6.34604,7.90444 -8.41448,10.27152 -11.37775,13.02045 -2.94099,2.72826 -6.65521,5.89754 -6.91161,5.89754 -0.179,0 -1.30035,-2.68123 -1.70425,-4.07501 -0.72158,-2.49001 -0.95098,-4.33881 -0.84773,-6.8321 0.18368,-4.4354 1.4178,-8.01466 4.0419,-11.72254 l 0.75251,-1.06331 -0.81505,-0.7318 c -2.43639,-2.18753 -4.95857,-3.6969 -7.29562,-4.36599 -1.85762,-0.53182 -4.86733,-0.50237 -6.75972,0.0662 -5.543614,1.66544 -10.015564,7.36 -11.396545,14.51231 -0.407771,2.11192 -0.412807,6.26001 -0.01015,8.34559 1.261779,6.535 4.629217,11.24483 9.753989,13.64228 3.439056,1.60885 7.279596,1.49765 10.761486,-0.31158 4.5343,-2.35609 15.07682,-12.28483 20.65417,-19.4517 4.83805,-6.2169 8.47263,-10.462 11.89321,-13.89098 6.70441,-6.72088 11.50972,-9.30273 17.85668,-9.59424 3.213,-0.14757 6.13904,0.48389 9.07189,1.95778 6.30997,3.17102 10.91842,9.59566 12.59318,17.55614 0.5739,2.72786 0.72829,7.42623 0.33228,10.11239 -0.74445,5.04982 -2.49489,9.21634 -5.48459,13.0549 -3.34248,4.29148 -8.42709,7.37079 -13.20757,7.99867 -5.91073,0.77634 -11.79797,-0.96067 -16.73207,-4.93675 -0.74964,-0.60407 -1.43483,-1.09832 -1.52268,-1.09832 -0.0878,0 -0.7317,0.48106 -1.43079,1.069 l -1.27108,1.06902 -0.8169,-0.90375 c -1.8499,-2.0466 -2.79972,-3.30983 -2.64096,-3.51243 2.62766,-3.35311 5.99585,-7.8022 6.72024,-8.87684 2.10778,-3.12692 3.07648,-5.83043 3.06185,-8.5452 l -0.007,-1.28772 -1.14892,1.2126 c -2.23113,2.35481 -4.47067,5.43048 -14.99186,20.58907 -4.68492,6.7499 -8.5314,10.33614 -13.83989,12.90359 -4.69916,2.27276 -9.27818,3.20975 -14.70807,3.00971 -10.787313,-0.39743 -20.931458,-7.04948 -26.852751,-17.60877 -5.232558,-9.33109 -6.135408,-20.69082 -2.478014,-31.17858 0.285272,-0.81803 1.04307,-2.55302 1.683985,-3.85554 4.910566,-9.97962 13.299556,-16.75746 23.35004,-18.86556 2.15158,-0.4513 6.29034,-0.61384 8.84923,-0.34754 7.18045,0.74727 13.68853,3.88904 19.11471,9.22763 2.3414,2.3036 3.77309,3.99877 3.59137,4.25227 -0.0858,0.11973 -1.61321,2.02871 -3.39416,4.24218 -8.60803,10.69848 -10.3231,13.54331 -10.65015,17.66552 l -0.0978,1.23231 0.69682,-0.74367 c 2.39701,-2.55814 7.17257,-8.57367 13.46951,-16.96682 5.5425,-7.38758 6.82143,-8.95381 9.04269,-11.07401 5.40614,-5.16015 12.15994,-7.85154 19.77999,-7.88234 3.71236,-0.015 6.85541,0.54251 10.07934,1.78788 11.78918,4.55403 20.02733,15.24331 21.97745,28.51648 0.31421,2.13859 0.53945,6.62838 0.4021,8.01507 z m -16.65,-7.68455 c -0.22413,-0.95438 -0.60431,-2.25579 -0.84484,-2.89204 -2.02844,-5.36558 -6.52423,-9.68144 -11.12107,-10.67598 -1.53023,-0.33107 -4.20352,-0.25234 -5.74347,0.16916 -2.51316,0.68788 -6.19802,3.00363 -11.48551,7.2181 -5.44259,4.33809 -9.06077,8.23005 -14.22456,15.30089 -6.64312,9.09651 -7.75505,10.52161 -10.14913,13.00743 -4.44844,4.61891 -8.71718,7.25433 -13.31325,8.21926 -1.68389,0.35354 -5.95536,0.40147 -7.59409,0.0852 -4.075886,-0.78659 -7.588384,-2.59692 -10.631988,-5.47967 -5.626686,-5.32934 -8.573514,-13.45692 -7.900487,-21.79021 0.419306,-5.19181 1.856498,-9.43505 4.581711,-13.52724 3.133523,-4.70533 7.566253,-7.94072 12.788864,-9.33443 1.84623,-0.49268 6.04842,-0.60254 8.21735,-0.21482 3.91522,0.69989 7.84294,2.52101 10.73628,4.97797 0.46896,0.39824 0.92223,0.72406 1.00726,0.72406 0.085,0 0.7039,-0.48339 1.37525,-1.07418 0.67136,-0.59081 1.27288,-1.07419 1.33673,-1.07419 0.10405,0 1.62375,1.63479 2.90239,3.12219 0.26508,0.30836 0.57045,0.53116 0.67859,0.49512 0.25958,-0.0865 -2.69804,-3.53572 -4.35537,-5.07925 -1.75017,-1.62999 -3.74946,-3.03511 -5.94588,-4.17882 -3.41822,-1.77994 -6.14927,-2.46949 -10.23233,-2.58352 -3.34374,-0.0934 -5.06789,0.10803 -7.698296,0.89931 -5.896344,1.77377 -10.723664,5.48221 -14.56108,11.18609 -3.355433,4.98747 -5.109356,10.4346 -5.38165,16.71366 -0.236771,5.46014 0.885678,10.69549 3.33597,15.55967 1.519288,3.01599 2.941478,5.03442 5.203878,7.3855 3.794833,3.94359 8.240226,6.49378 13.303368,7.63174 1.58808,0.35693 6.42945,0.50834 8.20124,0.25649 5.34121,-0.75922 10.23164,-3.13799 14.19098,-6.90266 2.07691,-1.9748 3.53675,-3.7907 6.28503,-7.81796 5.52697,-8.09909 6.82057,-9.90956 9.15116,-12.80759 1.70816,-2.12407 5.62105,-6.12968 7.9484,-8.13673 2.26165,-1.95042 6.12003,-5.00139 6.32495,-5.00139 0.19795,0 1.59888,2.97903 2.11622,4.50011 0.69085,2.03118 0.95671,3.81159 0.95671,6.407 0,4.63697 -1.08586,8.13723 -3.76948,12.15096 -1.27446,1.90612 -1.36331,1.61836 1.06459,3.44781 1.94142,1.46288 4.21746,2.65373 5.88923,3.08129 2.48855,0.63646 5.73881,0.34145 8.08818,-0.73413 4.73172,-2.16624 8.56897,-7.80359 9.57205,-14.06234 0.37287,-2.32655 0.21997,-6.94114 -0.3039,-9.17188 z"
       id="path1485"
       inkscape:connector-curvature="0" />
  </g>
  <g
     inkscape:groupmode="layer"
     id="layer2"
     inkscape:label="Layer 2" />
</svg>
